<svg width="1024" height="768" viewBox="0 0 1024 768" fill="none" xmlns="http://www.w3.org/2000/svg">
<g filter="url(#filter0_dd_15_282)">
<path fill-rule="evenodd" clip-rule="evenodd" d="M436.795 309.52C426.166 310.199 415.45 309.922 404.812 309.584C403.764 309.55 401.258 309.063 400.619 309.689C399.885 310.41 400.041 314.384 399.919 315.368C399.001 322.824 398.081 330.28 397.163 337.736C396.74 341.159 396.318 344.583 395.896 348.006C395.776 348.979 394.584 353.188 395.153 354.032C396.188 355.568 403.599 355.919 405.552 356.295L428.811 360.775C431.001 361.197 436.591 361.296 437.607 363.026C438.251 364.124 437.858 367.096 437.934 368.342L438.566 378.619C439.395 392.08 440.224 405.54 441.051 419C457.513 417.677 473.974 416.354 490.433 415.03C494.439 414.708 498.444 414.387 502.449 414.065C503.403 413.988 505.401 414.189 506.18 413.662C507.88 412.511 509.329 407.586 510.247 405.816C512.584 401.305 514.922 396.794 517.26 392.282C519.513 387.935 521.766 383.588 524.019 379.24C524.596 378.128 526.035 376.271 526 375.055C525.959 373.683 523.914 371.229 523.275 370.057C521.403 366.622 519.531 363.187 517.658 359.752C508.388 342.744 499.119 325.736 489.848 308.729C489.378 307.867 488.329 304.732 487.41 304.256C485.625 303.332 479.38 305.191 477.456 305.411C463.936 306.954 450.38 308.654 436.795 309.52Z" fill="#F38181"/>
<path fill-rule="evenodd" clip-rule="evenodd" d="M280 280.303C283.286 284.202 286.572 288.101 289.859 292C298.572 281.245 307.286 270.49 316 259.735C311.631 257.783 307.263 255.831 302.895 253.878C299.018 252.146 299.513 252.97 297.06 256.404C291.374 264.371 285.686 272.337 280 280.303Z" fill="black"/>
<path fill-rule="evenodd" clip-rule="evenodd" d="M448.041 533.999C448.027 539.666 448.014 545.333 448 551C465.334 550.146 482.667 549.293 500 548.439C499.213 546.062 498.425 543.684 497.638 541.307C497.023 539.45 496.245 533.837 494.75 532.591C493.116 531.23 485.933 532.634 483.739 532.713C471.84 533.142 459.94 533.57 448.041 533.999Z" fill="black"/>
<path fill-rule="evenodd" clip-rule="evenodd" d="M406.748 105C386.499 117.792 366.25 130.585 346 143.378C350.471 148.607 354.941 153.835 359.411 159.064C360.482 160.317 360.672 161.11 361.897 160.988C363.322 160.846 365.72 158.609 366.907 157.869C381.262 148.934 395.616 140 409.97 131.066C414.313 128.362 418.656 125.658 423 122.955C417.583 116.97 412.164 110.985 406.748 105Z" fill="black"/>
<path fill-rule="evenodd" clip-rule="evenodd" d="M877.225 304.944C876.493 298.997 873.495 292.952 871.301 287.445C868.716 280.955 865.993 274.52 863.205 268.116C861.439 264.061 860.799 265.058 856.183 265.239C850.788 265.449 845.393 265.661 840 265.872C844.153 280.951 848.307 296.03 852.46 311.109C853.179 313.719 854.341 323.505 856.607 324.826C857.391 325.284 860.101 324.695 860.99 324.662C863.535 324.566 866.079 324.471 868.624 324.376C872.083 324.246 875.541 324.117 879 323.987C878.518 317.633 878.003 311.27 877.225 304.944Z" fill="black"/>
<path fill-rule="evenodd" clip-rule="evenodd" d="M534.636 686.752C525.355 684.407 515.258 686.629 505.906 686.695C500.397 686.734 494.9 686.366 489.393 686.65C487.548 686.745 479.11 686.5 478.823 687.61C478.602 688.461 480.28 690.607 480.93 690.961C482.752 691.955 484.033 690.678 485.872 690.205C490.854 688.919 496.68 689.712 501.8 689.468C507.156 689.213 512.511 688.894 517.867 688.648C523.203 688.402 530.011 689.509 534.636 686.752ZM79.9248 205.677C79.2126 204.045 78.92 201.456 77.284 200.434C75.7687 199.487 72.5932 200.179 70.842 200.154C67.1181 200.104 59.0329 200.248 56.6001 203.638C53.6424 207.759 62.3435 210.697 65.2454 210.619C70.2874 210.482 74.8747 206.609 79.9248 205.677ZM172.619 153.95C173.003 152.906 171.656 152.216 170.683 151.884C168.207 151.038 166.578 152.445 164.399 153.504C158.897 156.177 152.915 157.944 147.127 159.875C142.088 161.556 137.414 163.912 132.472 165.805C128.969 167.147 121.575 166.886 119.558 170.272C115.574 176.961 126.009 171.944 127.847 171.295C133.123 169.435 138.739 168.288 143.91 166.162C148.888 164.116 153.963 162.035 158.889 159.819C161.136 158.808 163.371 157.95 165.662 157.067C167.806 156.241 170.339 154.168 172.619 153.95ZM323.19 269.883C321.875 269.077 316.487 264.578 314.677 265.171C313.263 265.636 311.681 270.804 310.8 272.161C306.387 278.956 301.628 285.47 296.897 292.042C298.996 293.172 301.096 294.3 303.196 295.429C307.478 285.283 315.733 277.69 323.19 269.883ZM404.891 306.147C411.649 306.163 418.344 305.316 425.094 305.41C432.658 305.515 440.09 305.72 447.646 305.103C455.082 304.494 462.489 304.464 469.925 304.012C472.263 303.87 485.287 302.876 477.658 299.152C475.091 297.899 472.004 299.46 469.216 300.023C465.986 300.675 462.726 300.919 459.461 301.312C456.349 301.687 453.045 302.722 449.906 302.646C446.613 302.565 444.141 301.977 440.831 302.453C433.97 303.441 427.138 302.888 420.28 302.252C415.551 301.813 405.17 299.154 404.891 306.147ZM588.799 690.954C593.149 687.446 600.028 688.965 605.196 687.847C610.903 686.611 606.409 680.563 604.221 677.343C601.94 673.985 598.505 667.275 594.67 672.244C590.664 677.436 590.192 684.756 588.799 690.954ZM451.884 538.542C451.739 541.695 450.178 544.939 453.457 546.022C456.604 547.06 462.006 545.482 465.267 545.201C469.518 544.833 473.7 544.132 477.938 543.694C479.829 543.499 481.73 543.354 483.632 543.528C484.942 543.647 488.099 545.07 489.27 544.481C490.708 543.758 491.405 539.857 490.23 538.353C488.957 536.723 481.266 538.339 478.514 538.548C469.549 539.227 460.811 538.141 451.884 538.542ZM451.335 528.427C455.463 526.727 460.366 527.523 464.712 527.499C469.826 527.473 474.88 527.752 479.982 528.084C482.239 528.231 488.823 529.904 490.717 528.459C491.713 527.7 492.071 521.192 491.227 520.195C489.849 518.565 485.525 520.526 483.754 520.791C479.01 521.495 474.169 521.477 469.383 521.433C464.903 521.393 460.41 521.194 455.933 521.184C450.628 521.171 451.346 523.881 451.335 528.427ZM309.351 261.613C307.665 260.635 302.13 256.143 300.063 256.825C298.304 257.405 296.436 262.767 295.386 264.451C293.384 267.661 291.27 270.808 289.196 273.972C287.87 275.995 284.335 279.65 284.939 282.384C285.26 283.84 288.204 286.355 289.691 285.913C291.225 285.458 293.752 279.752 294.603 278.626C299.211 272.539 305.001 267.959 309.351 261.613ZM846.031 268.204C851.937 279.781 852.697 292.871 855.897 305.296C856.642 308.188 857.79 311.042 858.422 313.951C858.775 315.572 858.126 318.349 859.033 319.728C861.304 323.182 871.812 322.085 874.079 319.045C875.41 317.259 874.376 315.407 873.81 313.553C873.044 311.049 873.411 308.868 872.967 306.369C872.079 301.36 867.566 296.305 865.424 291.682C863.085 286.631 862.009 280.556 858.659 276.044C856.416 273.026 850.126 266.797 846.031 268.204ZM460.9 719.804C468.804 718.764 481.235 716.415 480.821 705.793C480.409 695.236 466.568 693.361 458.863 692.435C456.605 692.164 456.359 692.034 454.067 693.403C452.491 694.344 450.922 695.349 449.453 696.445C446.592 698.582 443.351 701.491 442.741 705.218C441.191 714.684 453.965 718.964 460.9 719.804ZM415.726 120.067C419.312 120.447 414.542 116.962 413.638 116.54C410.894 115.26 407.846 115.492 404.933 115.979C397.885 117.157 391.647 123.074 385.624 126.733C379.247 130.606 372.952 134.986 366.302 138.366C363.262 139.913 360.748 141.225 358.222 143.532C356.934 144.708 356.488 145.524 354.757 145.523C353.797 145.523 351.657 143.28 350.635 144.578C347.783 148.2 362.154 149.372 363.654 149.127C371.147 147.901 377.648 145.058 384.077 141.202C390.642 137.267 397.613 134.072 404.211 130.241C407.062 128.584 409.504 126.388 412.105 124.42C412.477 124.138 413.151 123.188 413.527 122.827C414.132 123.005 414.638 122.848 415.045 122.357C415.257 121.589 415.484 120.825 415.726 120.067ZM560.681 686.851C553.393 689.437 541.479 691.452 538.059 700.001C534.186 709.686 551.596 716.591 558.428 717.117C565.606 717.668 578.362 714.763 579.362 705.838C579.936 700.701 575.864 697.422 572.058 694.86C568.169 692.24 562.616 691.678 560.681 686.851ZM94.3323 147.457C89.1805 148.049 85.679 148.557 81.5751 151.9C78.17 154.675 75.3645 157.478 73.977 161.759C70.769 171.652 78.6976 180.146 88.8824 178.994C90.0052 178.867 91.1018 178.452 92.2417 178.566C93.2888 178.672 94.0208 179.423 94.9058 179.574C96.992 179.928 97.3962 179.562 99.1078 177.939C102.599 174.626 106.104 170.987 108.038 166.517C112.695 155.752 105.691 147.65 94.3323 147.457ZM211.461 126.839C211.961 115.698 195.001 113.867 187.181 114.714C178.301 115.677 163.734 124.692 167.115 135.753C170.092 145.488 186.884 144.746 194.141 142.767C195.694 142.344 198.107 141.425 199.635 141.736C201.93 142.201 202.041 144.09 204.204 142.38C205.563 141.305 206.791 138.174 207.75 136.632C209.663 133.56 210.651 130.356 211.461 126.839ZM449.84 584.378C449.606 586.763 448.695 589.83 451.263 590.966C452.85 591.667 457.253 590.899 458.847 590.955C465.501 591.192 472.33 590.663 478.943 591.191C480.898 591.348 486.742 593.332 488.482 592.002C490.183 590.701 488.855 586.633 488.742 584.812C488.279 577.381 489.275 570.158 489.595 562.768C489.68 560.783 490.5 555.961 488.978 554.491C487.125 552.701 483.014 553.736 480.806 553.96C473.918 554.657 466.831 555.679 459.906 555.694C458.006 555.698 453.797 554.349 452.149 555.06C449.616 556.152 450.212 559.963 450.073 562.396C449.649 569.731 449.368 577.036 449.84 584.378ZM294.972 251.718C285.94 245.027 276.578 238.683 267.547 232.177C264.331 229.861 261.94 226.554 258.927 224.294C257.037 222.874 256.461 222.257 253.877 223.627C250.892 225.211 248.117 227.698 245.363 229.663C243.05 231.313 240.726 232.949 238.41 234.592C236.264 236.114 235.545 236.46 237.066 238.988C239.742 243.437 245.299 247.451 248.932 251.11C257.898 260.138 266.655 269.479 276.729 277.278C280.191 267.176 287.355 258.961 294.972 251.718ZM396.217 95.7772C380.538 89.5823 379.349 68.6063 373.865 55.2359C372.167 64.389 376.672 79.2647 369.066 86.4529C364.389 90.873 361.679 84.6349 359.168 81.2395C355.343 76.0694 351.238 71.1265 347.587 65.8248C348.708 72.2207 351.92 79.399 351.32 85.903C350.848 91.0091 347.584 98.0035 342.834 92.2133C339.572 88.2366 335.396 84.5168 331.592 80.9898C327.019 76.7499 321.801 74.0108 316.83 70.3946C318.755 79.9596 322.424 88.4502 327.834 96.5452C330.609 100.699 333.646 104.688 336.266 108.944C338.407 112.423 339.417 116.75 342.254 119.706C344.904 122.467 348.801 124.671 351.974 126.792C356.493 129.812 357.576 128.953 361.731 126.083C369.774 120.529 378.507 116.082 386.602 110.598C385.104 108.617 382.71 106.66 382.789 103.963C382.852 101.78 384.523 99.7927 386.759 100.054C388.511 100.259 389.322 102.095 391.272 101.475C392.921 100.951 395.174 97.0148 396.217 95.7772ZM936.106 262.822C928.84 263.679 922.057 266.268 914.61 265.796C911.597 265.605 909.347 266.161 908.023 263.136C906.966 260.72 908.048 257.048 904.727 256.39C902.266 255.903 899.22 258.189 897.401 259.482C894.132 261.807 891.235 263.87 887.534 265.512C880.972 268.423 874.311 270.954 867.139 271.272C868.875 276.541 870.702 281.818 873.105 286.826C875.408 291.627 877.674 295.711 878.359 301.058C878.652 303.347 878.652 305.841 880.898 306.847C883.102 307.835 887.03 307.021 889.416 307.063C894.879 307.161 900.345 307.289 905.808 307.302C909.972 307.31 914.113 308.302 918.167 308.245C923.207 308.172 928.91 305.981 933.825 304.941C943.139 302.971 956.172 301.749 963.594 295.396C956.724 294.315 949.726 295.051 942.977 296.531C939.888 297.21 932.8 300.74 930.729 297.205C928.262 292.994 933.09 287.18 936.497 285.224C940.341 283.014 946.077 283.253 948.786 279.272C943.669 279.704 938.278 279.893 933.331 281.398C929.54 282.551 924.648 285.836 923.148 280.147C920.717 270.931 929.768 266.56 936.106 262.822ZM393.869 341.725C395.153 329.525 397.509 317.196 397.718 304.913C397.807 299.607 391.811 300.556 387.615 299.048C381.515 296.857 375.536 294.263 369.546 291.791C363.576 289.326 357.573 286.95 351.582 284.536C346.143 282.346 340.923 279.033 335.439 277.086C332.454 276.026 332.222 277.061 330.49 279.8C328.805 282.465 327.035 285.073 325.203 287.638C321.355 293.027 317.235 298.215 313.024 303.322C325.694 310.95 338.92 318 351.994 324.913C365.336 331.969 379.849 336.24 393.869 341.725ZM664.527 295.444C671.229 295.46 677.755 294.496 684.428 294.291C691.024 294.089 697.403 294.378 703.945 294.55C710.228 294.714 716.388 295.988 722.654 296.285C724.178 296.357 725.762 296.351 727.277 296.52C728.802 296.69 729.705 297.256 731.119 297.496C734.595 298.086 737.979 297.251 741.486 297.439C754.415 298.129 767.154 300.785 780.088 301.458C793.382 302.151 806.359 303.183 819.593 304.777C826.588 305.62 833.594 306.115 840.621 306.608C842.061 306.709 845.147 307.616 845.936 305.972C846.895 303.976 843.643 297.155 843.043 295.042C842.266 292.295 841.626 289.487 840.581 286.823C839.969 285.267 838.679 280.185 837.438 279.197C835.707 277.82 833.122 279.143 831.102 279.435C827.009 280.026 822.848 280.379 818.733 280.784C812.64 281.387 806.543 282.826 800.455 283.009C793.582 283.214 786.744 282.92 779.88 282.664C766.131 282.149 752.051 282.415 738.373 281.011C722.568 279.387 706.69 278.728 690.847 277.536C687.092 277.253 683.326 277.182 679.567 276.956C676.879 276.795 671.389 274.908 668.877 275.783C666.324 276.673 666.808 279.694 666.519 282.042C665.968 286.522 665.254 290.989 664.527 295.444ZM499.951 419.775C490.414 421.241 481.057 421.815 471.416 422.092C467.163 422.214 462.938 422.418 458.702 422.844C455.161 423.2 453.175 423.355 453.045 427.232C452.468 444.239 451.544 461.062 451.021 478.075C450.725 487.681 451.066 497.298 451.032 506.907C451.019 510.554 450.272 513.183 454.28 513.609C459.15 514.126 464.259 513.447 469.158 513.493C473.668 513.537 478.179 513.647 482.688 513.746C485.584 513.808 490.952 515.249 491.925 511.743C492.234 510.621 491.676 508.652 491.705 507.412C491.759 505.104 492.044 502.774 492.183 500.467C492.502 495.175 492.734 489.878 493.056 484.586C494.371 462.904 497.906 441.4 499.951 419.775ZM390.748 149.849C397.039 154.675 404.194 157.996 410.919 162.217C414.143 164.241 417.255 166.412 420.414 168.533C423.663 170.716 427.438 172.039 430.509 174.463C436.45 179.157 443.802 182.147 450.329 186.219C456.962 190.358 463.573 194.503 470.356 198.391C473.358 200.112 476.64 201.146 479.719 202.698C483.408 204.559 486.756 206.997 490.497 208.775C498.504 212.584 506.5 216.396 514.473 220.278C530.125 227.897 546.168 234.937 562.146 241.841C565.552 243.312 569.131 243.958 572.72 244.827C574.415 245.237 576.564 245.45 578.092 246.265C578.566 246.519 579.069 246.555 579.447 246.981C580.168 247.799 579.556 248.944 580 249.552C582.487 252.958 589.397 243.387 591.005 241.068C593.486 237.484 592.479 236.904 588.647 235.417C584.782 233.917 580.881 232.503 577.057 230.901C570.015 227.949 562.811 224.609 556.082 220.993C549.084 217.231 541.796 214.125 534.871 210.201C527.104 205.801 519.398 201.311 511.544 197.066C498.291 189.905 486.117 180.876 473.242 173.103C466.132 168.812 459.45 163.705 452.572 158.98C445.859 154.369 439.497 149.22 432.642 144.912C428.871 142.542 424.95 140.57 421.426 137.833C418.792 135.788 416.164 133.689 412.863 135.406C409.295 137.261 405.928 140.38 402.463 142.534C398.554 144.966 394.652 147.41 390.748 149.849ZM682.784 229.662C680.744 228.593 673.246 225.741 676.766 222.246C679.271 219.759 685.193 223.064 687.621 223.886C687.57 220.448 687.575 218.076 686.469 214.798C685.357 211.504 685.665 209.013 688.375 206.516C689.614 205.374 694.109 204.389 694.63 202.891C695.441 200.563 691.408 201.302 690.032 200.976C682.759 199.256 683.199 191.632 683.018 185.795C682.805 178.932 681.199 172.333 675.896 167.873C673.5 165.858 672.636 165.855 669.684 167.178C668.597 167.665 667.617 168.45 666.417 168.666C664.72 168.971 663.582 167.865 662.072 167.94C659.732 168.056 657.343 171.927 655.065 173.164C652.115 174.766 649.211 174.288 646.296 175.434C643.703 176.453 641.197 179.219 638.778 180.69C635.485 182.693 636.235 184.658 636.446 188.594C636.621 191.877 636.516 194.031 633.287 195.249C632.246 195.642 630.415 195.465 629.529 196.097C628.22 197.03 628.929 197.731 628.508 199.292C627.439 203.239 625.175 200.83 622.285 200.303C618.765 199.66 614.888 202.144 616.727 205.922C617.384 207.274 618.797 208.505 620.21 208.926C621.882 209.423 623.968 208.054 625.511 208.672C629.444 210.248 626.3 213.982 626.488 216.526C628.875 215.231 629.686 211.518 632.154 215.634C633.936 218.608 633.227 223.127 632.784 226.374C631.757 233.888 629.453 243.092 624.566 249.119C623.862 249.987 622.811 251.618 621.488 251.412C620.387 251.242 620.255 249.814 619.304 249.449C617.263 248.663 614.137 249.827 613.355 251.717C612.034 254.911 612.172 259.598 612.068 262.978C611.947 266.87 611.49 271.272 612.434 275.089C614.046 281.608 620.111 283.878 626.01 285.318C629.298 286.119 632.902 287.055 636.23 285.928C639.86 284.699 642.355 281.401 644.914 278.739C646.838 276.738 650.571 274.461 650.822 271.566C650.94 270.212 649.976 268.344 649.757 266.957C649.408 264.755 649.31 262.53 649.368 260.301C649.476 256.209 650.621 252.048 650.272 247.955C649.912 243.768 646.8 243.467 645.105 240.242C644.095 238.318 643.858 235.322 646.314 234.667C647.742 234.287 650.415 235.37 651.961 235.48C654.32 235.648 656.709 235.685 659.074 235.708C663.433 235.753 666.717 235.529 670.663 233.631C674.723 231.679 678.35 230.461 682.784 229.662ZM581.722 688.362C581.886 684.793 582.383 681.224 583.488 677.817C584.428 674.921 586.444 672.386 586.784 669.394C587.491 663.15 585.421 657.283 579.403 655.031C573.566 652.846 567.243 652.881 561.15 653.291C557.611 653.529 554.613 652.318 551.141 652.478C547.486 652.647 544.261 652.145 540.631 651.761C533.89 651.044 528.145 648.076 521.598 646.82C518.394 646.206 517.286 647.573 515.326 649.828C513.166 652.311 510.734 654.4 507.997 656.224C503.791 659.028 496.265 664.179 495.864 655.487C495.527 648.191 502.834 642.786 507.346 638.061C502.775 636.119 503.166 628.905 497.855 631.808C495.55 633.068 493.731 634.931 491.602 636.442C489.81 637.714 485.698 641.255 483.341 640.979C480.015 640.59 479.659 635.863 480.158 633.24C481.063 628.476 486.042 625.734 489.577 622.936C491.712 621.245 494.907 619.914 496.722 617.929C498.651 615.818 498.222 613.453 498.157 610.801C498.128 609.594 499.033 605.048 498.542 604.006C497.784 602.399 495.162 602.824 493.293 602.658C489.825 602.348 486.383 601.74 482.928 601.413C480.22 601.157 477.618 601.768 474.908 601.867C468.063 602.118 461.138 601.761 454.284 601.742C453.04 601.738 447.829 600.848 446.963 601.924C446.215 602.851 446.927 607.15 446.923 608.261C446.9 615.159 446.923 622.048 447.129 628.943C447.534 642.549 447.079 656.519 444.285 669.892C443.779 672.315 442.186 675 444.642 676.192C446.531 677.11 451.573 675.684 453.633 675.55C460.313 675.113 467.066 675.543 473.71 675.058C485.277 674.212 497.24 674.989 509.038 675.263C524.734 675.629 540.341 677.326 556.032 677.728C562.852 677.903 569.789 676.658 576.521 676.864C579.167 676.945 579.916 677.615 580.065 680.45C580.242 683.82 578.777 685.628 581.722 688.362ZM252.375 207.228C246.346 197.044 240.663 186.658 234.64 176.471C231.92 171.871 228.865 167.498 225.828 163.105C224.272 160.854 222.552 158.58 221.363 156.101C220.273 153.832 219.948 151.222 218.665 149.044C216.238 154.41 211.028 157.354 205.575 159.275C201.338 160.767 197.204 162.905 192.784 163.826C181.222 166.238 169.785 171.434 158.44 175.201C134.349 183.199 108.598 187.591 85.4044 197.983C93.3185 205.817 90.8596 222.521 104.065 225.047C109.319 226.053 114.806 224.436 119.834 223.051C126.183 221.301 132.537 219.565 138.893 217.835C145.789 215.956 152.754 214.497 159.706 212.857C163.198 212.033 166.712 211.461 170.211 210.719C173.125 210.1 173.16 209.495 174.687 206.749C177.27 202.108 182.06 197.361 186.112 203.484C187.762 205.978 187.412 209.108 188.858 211.58C190.093 213.69 192.734 214.786 194.591 216.212C195.879 212.575 197.418 207.648 200.265 204.854C203.371 201.805 206.457 204.258 207.575 207.841C208.918 212.147 206.938 217.386 206.072 221.622C205.649 223.693 204.846 226.072 205.332 228.196C205.978 231.018 208.437 233.927 209.902 236.376C223.595 226.17 237.583 215.748 252.375 207.228ZM520.063 378.69C516.053 373.255 511.815 368.439 508.806 362.35C505.589 355.843 502.987 348.834 499.556 342.492C496.149 336.194 493.013 329.777 489.903 323.311C487.732 318.798 485.261 307.963 479.044 308.234C475.939 308.37 472.771 309.488 469.647 309.795C465.985 310.155 462.307 310.135 458.65 310.582C450.627 311.563 442.817 313.318 434.72 313.793C427.762 314.202 420.714 314.411 413.747 314.108C411.849 314.026 406.907 312.547 405.147 313.394C403.095 314.382 403.781 318.235 403.608 320.207C402.953 327.624 401.951 335.048 400.824 342.405C400.631 343.66 398.692 349.93 399.56 350.99C400.898 352.625 406.649 351.532 408.525 351.677C415.924 352.246 423.194 353.936 430.565 354.754C434.303 355.168 438.046 355.264 441.805 355.277C445.457 355.29 450.785 354.282 454.249 355.533C456.477 356.338 457.741 358.231 457.022 360.642C456.229 363.3 453.651 363.894 451.26 364.392C449.507 364.756 444.422 364.553 443.318 366.165C442.123 367.91 444.216 371.198 444.806 372.853C445.937 376.025 445.295 377.387 445.212 380.49C445.122 383.755 447.013 386.629 446.761 389.931C446.515 393.159 446.381 395.736 446.695 399.027C446.972 401.918 446.779 405.085 447.185 407.893C448.124 414.393 462.178 410.461 466.539 410.364C475.554 410.162 484.605 411.62 493.586 411.189C496.228 411.061 502.355 411.541 504.217 409.297C506.106 407.025 506.406 401.84 507.624 399.028C510.804 391.68 515.545 385.239 520.063 378.69ZM600.333 234.024C599.676 241.565 599.31 247.374 594.794 253.72C589.973 260.496 584.428 259.889 576.815 260.634C569.982 261.303 564.621 263.561 559.132 267.601C552.677 272.352 545.715 276.297 538.836 280.386C525.75 288.166 510.143 290.317 495.283 292.629C491.547 293.211 484.65 294.883 489.046 299.311C493.772 304.072 496.419 311.097 499.595 317.053C506.875 330.71 512.456 345.379 520.76 358.458C524.114 363.742 528.128 370.118 533.277 373.849C538.165 377.389 547.977 370.814 552.953 368.639C559.42 365.812 566.206 363.667 572.299 360.179C577.982 356.925 583.766 354.118 589.739 351.44C595.604 348.809 601.284 346.19 607.427 344.27C614.655 342.011 622.293 341.209 629.635 339.241C637.168 337.223 643.113 335.083 649.2 330.09C652.029 327.771 655.476 325.451 656.615 321.785C657.781 318.035 656.923 313.252 656.746 309.406C656.561 305.387 655.936 301.27 656.018 297.249C656.1 293.196 658.088 290.015 659.289 286.248C661.183 280.305 663.338 269.529 657.339 265.527C656.916 271.877 654.677 277.574 652.58 283.53C650.56 289.267 647.243 292.776 642.284 296.121C640.397 297.393 638.356 299.165 636.122 299.743C633.754 300.357 630.439 300.042 627.977 300.069C622.438 300.127 616.437 298.676 612.171 294.943C603.536 287.384 601.651 273.837 602.485 263.091C602.966 256.911 603.984 250.684 606.817 245.108C607.791 243.19 609.728 241.144 608.647 238.899C607.515 236.548 602.449 235.125 600.333 234.024ZM429.959 365.71C419.774 364.381 409.167 363.299 399.275 360.424C395.675 359.378 391.333 358.054 391.295 353.737C391.283 352.412 392.275 350.019 391.704 348.773C391.119 347.496 387.472 347.41 385.784 347.074C366.163 343.183 347.938 335.577 330.422 326.052C312.707 316.418 296.343 305.05 279.627 293.823C263.318 282.87 249.767 269.493 236.211 255.426C234.328 253.472 232.396 251.568 230.451 249.675C229.032 248.293 227.061 245.479 225.196 244.729C221.843 243.381 217.155 248.488 214.191 250.008C210.334 251.986 205.734 252.285 203.189 248.117C201.508 245.364 203.071 244.861 203.312 242.27C203.51 240.14 202.052 238.933 200.77 237.45C199.781 239.784 198.466 244.055 195.1 243.524C192.075 243.048 191.743 238.878 191.528 236.501C191.276 233.729 192.14 230.208 190.264 227.965C188.789 226.2 185.906 224.91 184.017 226.509C180.217 229.725 182.682 239.304 177.319 241.692C169.758 245.057 170.495 229.699 170.335 226.629C153.407 228.501 137.497 235.895 120.551 238.315C113.654 239.3 105.688 238.977 99.6687 235.04C94.1342 231.421 88.3863 223.457 86.0202 217.346C80.3434 221.554 74.4083 224.78 67.119 222.903C59.7091 220.994 53.1905 216.883 50.4678 209.435C47.7343 201.96 48.5248 196.267 55.3486 192.048C58.1406 190.321 60.3483 189.475 63.4212 188.641C66.8237 187.718 71.1337 187.05 74.3462 185.588C71.0338 180.748 67.2658 176.007 65.7604 170.224C64.0623 163.702 64.9095 156.364 67.5431 150.197C72.3033 139.051 85.6844 131.594 97.7375 134.141C108.256 136.364 115.7 145.47 118.687 155.43C120.045 159.958 118.853 162.758 124.392 160.309C130.682 157.526 136.186 153.432 142.683 150.977C148.32 148.846 154.466 147.056 159.688 143.997C162.391 142.414 162.264 142.278 161.162 139.373C159.794 135.765 158.948 132.406 159.253 128.485C160.126 117.259 169.418 109.301 179.361 105.607C190.634 101.42 204.612 103.074 213.059 112.123C217.163 116.52 219.964 122.298 220.322 128.348C220.482 131.03 218.883 135.106 219.775 137.579C220.551 139.73 224.223 141.38 225.64 143.436C227.888 146.701 228.929 150.608 231.16 153.929C233.094 156.804 235.053 159.656 236.911 162.583C241.426 169.688 245.657 176.968 249.347 184.538C251.035 188.001 252.62 191.514 254.166 195.043C255.229 197.463 256.105 201.884 258.015 203.812C259.945 205.761 262.822 205.137 264.478 207.604C266.565 210.71 264.583 213.456 262.929 216.162C275.505 219.846 283.227 230.494 293.291 238.298C303.45 246.174 314.601 252.995 325.522 259.749C336.89 266.779 348.051 273.48 360.428 278.589C371.96 283.35 383.108 288.961 394.609 293.782C396.22 294.458 397.476 295.354 399.071 294.305C400.546 293.333 400.842 290.201 402.383 288.932C406.288 285.716 415.474 287.5 420.121 287.427C426.824 287.323 433.624 286.944 440.322 287.29C442.589 287.407 444.78 288.311 447.001 288.011C450.406 287.554 453.585 286.858 457.128 286.714C460.077 286.594 463.021 286.376 465.975 286.482C467.376 286.532 469.744 287.133 471 286.18C472.567 284.993 471.623 282.143 472.693 280.415C473.387 279.295 474.759 278.989 475.431 278.106C475.345 278.218 476.501 276.225 476.18 276.478C478.245 274.849 484.02 274.356 486.46 274.937C487.164 275.104 487.279 276.29 488.166 276.293C489.049 276.296 489.117 275.403 489.741 275.19C490.389 274.967 490.563 274.07 491.429 273.934C492.387 273.783 493.613 274.86 494.65 274.92C495.818 274.987 496.933 274.213 498.019 273.911C499.464 273.511 500.578 273.804 501.781 273.662C503.975 273.402 506.334 273.155 508.613 272.888C511.928 272.5 515.157 271.465 518.391 270.679C519.808 270.333 521.225 269.931 522.687 269.821C524.375 269.692 526.572 270.487 528.165 270.111C529.528 269.79 528.418 269.303 529.599 268.894C530.876 268.451 532.256 268.33 533.551 267.882C536.525 266.852 539.269 265.142 541.941 263.511C548.165 259.712 553.733 254.978 559.886 251.077C558.481 249.033 553.252 248.687 551.04 247.964C547.995 246.969 545.007 245.803 542.029 244.628C535.258 241.955 528.537 239.152 521.818 236.353C509.073 231.043 496.255 225.92 484.074 219.405C472.631 213.286 460.41 208.517 449.064 202.179C443.292 198.954 437.513 195.56 431.902 192.063C426.674 188.805 421.049 186.584 415.633 183.605C405.054 177.785 395.337 170.544 384.717 164.848C382.209 163.503 379.424 160.655 376.718 159.923C374.391 159.294 372.031 160.592 369.929 161.502C367.702 162.466 365.612 164.049 363.112 164.103C360.36 164.163 357.21 162.68 354.613 161.781C349.787 160.112 345.595 155.485 343.84 150.666C342.983 148.31 342.586 145.693 342.269 143.214C341.894 140.276 342.886 136.822 342.17 134.028C340.809 128.714 334.521 123.724 331.005 119.912C326.639 115.179 322.855 109.882 319.408 104.453C311.704 92.3143 306.358 77.9163 310.653 63.6291C311.308 61.4515 312.475 57.8533 314.402 56.404C317.077 54.3904 318.222 56.7402 320.536 57.9074C323.41 59.3577 326.137 60.2022 328.831 62.1726C332.097 64.5602 334.784 67.4724 337.794 70.1431C337.81 63.9761 336.85 58.5699 338.181 52.3939C338.864 49.2239 340.393 42.6297 344.426 42.0646C348.609 41.4778 351.609 49.0599 353.429 51.8261C356.814 56.9664 360.597 61.7895 364.363 66.6504C364.852 59.1089 363.851 41.1804 373.332 38.214C381.827 35.5551 386.219 58.45 388.277 63.5732C390.196 68.3531 392.891 73.0752 395.807 77.3214C398.862 81.7704 402.192 79.5035 406.927 79.7126C411.303 79.9064 413.271 82.934 413.223 87.2262C413.161 92.6568 408.846 96.6236 405.861 100.721C412.322 103.845 420.689 107.908 424.549 114.341C425.405 115.766 425.994 117.402 426.047 119.084C426.098 120.747 424.577 123.792 425.367 125.329C425.944 126.453 427.892 126.86 428.929 127.472C431.075 128.738 432.98 130.376 435.1 131.688C448.997 140.291 462.062 150.57 475.467 159.652C487.572 167.853 500.394 175.158 512.637 183.354C528.206 193.775 544.575 202.642 561.24 211.209C565.083 213.186 568.648 215.381 572.337 217.593C576.123 219.863 580.641 221.396 584.681 223.234C587.513 224.521 590.601 226.971 593.573 227.773C597.109 228.728 598.598 224.976 602.718 225.949C606.274 226.788 610.149 227.159 612.285 230.359C614.156 233.165 613.982 237.457 616.996 239.271C620.491 241.372 621.471 239.119 622.279 236.2C623.198 232.878 625.793 229.08 622.608 226.689C619.599 224.43 615.336 224.181 611.815 223.346C610.031 222.923 607.665 221.379 605.966 221.239C603.844 221.064 603.347 223.042 601.543 223.045C600.584 223.046 599.741 222.118 598.827 221.823C598.621 221.757 598.08 222.513 597.831 222.443C596.938 222.193 596.866 221.894 595.994 221.537C592.889 220.261 588.783 218.25 589.72 214.374C590.222 212.294 593.629 208.949 591.251 207.042C589.017 205.249 586.017 208.988 584.785 205.246C583.911 202.588 586.044 201.875 583.331 199.687C581.337 198.078 579.5 197.641 580.604 194.691C581.313 192.791 585.006 189.902 583.948 187.611C582.448 184.369 576.746 187.647 577.296 181.789C577.688 177.594 582.963 174.565 582.999 170.437C583.024 167.482 580.222 167.503 579.494 165.583C578.774 163.686 579.431 163.693 580.482 162.361C581.262 161.371 581.769 161.042 582.351 159.876C583.06 158.458 584.283 156.622 583.823 154.973C583.41 153.49 581.674 152.609 581.238 150.966C579.593 144.779 592.662 130.721 595.992 139.24C598.464 136.38 601.705 130.392 606.074 130.872C608.716 131.162 607.587 131.916 608.504 133.442C609.169 134.549 611.015 135.112 611.538 136.31C612.574 133.094 611.475 127.134 614.354 124.774C617.159 122.474 618.922 126.521 620.115 128.773C620.883 126.648 621.376 122.661 624.024 121.899C626.858 121.085 628.626 124.63 630.006 126.435C631.493 124.323 634.28 118.096 637.491 118.855C639.899 119.424 641.091 123.445 642.217 125.301C644.852 123.57 649.005 119.402 652.416 119.843C655.739 120.271 655.446 123.386 659.332 122.112C662.149 121.187 665.078 118.731 668.069 118.547C671.222 118.353 672.889 120.563 676.391 120.027C680.108 119.458 680.676 118.593 683.099 121.628C684.295 123.126 683.978 123.783 686.054 124.096C687.809 124.362 689.346 123.202 691.186 123.933C692.548 124.473 693.499 125.734 694.069 127.03C694.742 128.561 693.962 131.213 694.634 132.418C695.927 134.734 700.814 132.69 703.008 134.299C705.968 136.47 703.181 139.766 704.757 142.172C706.022 144.103 709.586 143.611 711.005 146.218C712.291 148.579 711.989 151.699 710.497 153.887C709.871 154.806 708.11 155.568 707.697 156.4C706.846 158.116 707.56 157.916 708.055 159.67C709.002 163.024 708.244 164.29 705.659 166.585C704.163 167.912 703.851 167.531 703.751 169.548C703.674 171.105 704.999 172.548 704.753 174.29C704.353 177.12 701.569 178.899 700.731 181.681C699.652 185.262 696.702 187.222 694.479 190.169C697.107 191.755 700.561 193.069 701.836 196.045C703.228 199.292 702.97 203.913 701.984 207.206C701.037 210.363 699.011 212.377 697.063 214.882C694.692 217.932 694.894 220.35 694.747 224.073C694.437 231.943 691.06 239.089 683.342 241.589C680.28 242.58 677.515 244.039 674.408 244.963C670.61 246.095 667.83 246.187 663.889 245.963C661.424 245.824 658.54 245.292 657.683 247.903C657.254 249.208 657.41 254.288 657.996 255.447C658.997 257.432 661.834 257.168 663.544 258.885C666.627 261.98 665.755 264.618 670.958 264.69C687.814 264.925 704.617 263.624 721.473 264.844C729.785 265.446 737.92 266.883 746.265 267.306C755.45 267.77 764.658 267.925 773.836 268.483C782.5 269.009 790.977 270.144 799.686 269.695C807.82 269.276 815.632 268.718 823.733 267.82C826.504 267.512 830.797 267.954 832.755 265.835C833.84 264.66 834.09 262.646 835.173 261.352C836.174 260.158 837.531 259.294 838.759 258.362C841.736 256.102 844.543 254.07 848.471 254.144C851.912 254.21 854.656 256.696 857.462 258.524C860.717 260.647 862.065 261.622 865.924 260.799C869.772 259.98 873.301 258.46 877.055 257.342C884.973 254.985 892.393 251.595 899.606 247.574C903.159 245.593 905.662 244.261 909.754 245.454C913.948 246.676 915.141 247.879 915.192 252.235C915.207 253.618 914.68 256.076 916.27 256.875C917.423 257.454 919.963 255.837 920.942 255.412C925.27 253.534 929.518 251.578 934.043 250.207C938.171 248.955 942.351 247.845 946.496 246.65C949.965 245.649 954.589 244.201 958.044 246.063C966.773 250.766 953.929 262.717 950.594 266.693C954.753 265.696 963.681 266.265 965.868 270.729C968.458 276.013 963.267 281.252 960.338 285.093C964.44 286.961 972.724 285.354 973.88 291.237C974.851 296.176 969.714 301.15 966.366 304.039C957.699 311.517 944.258 316.752 932.813 316.851C929.908 316.876 927.078 316.31 924.19 316.172C922.076 316.072 920.169 316.803 918.115 316.806C915.221 316.809 912.654 316.24 909.668 316.649C906.227 317.119 902.814 317.697 899.357 318.086C896.15 318.447 892.941 318.776 889.723 319.026C887.603 319.193 884.404 318.725 882.434 319.437C879.884 320.358 880.628 321.279 880.421 323.731C880.165 326.743 878.64 329.465 876.422 331.473C868.361 338.769 854.634 337.017 850.583 326.308C849.597 323.704 850.906 322.343 850.534 319.995C850.161 317.632 847.963 317.712 845.811 317.553C839.261 317.068 832.626 317.023 826.048 316.569C813.315 315.692 800.2 313.906 787.473 314.21C774.19 314.526 760.824 313.727 747.555 313.006C741.364 312.669 734.95 310.498 728.857 310.967C722.384 311.463 715.51 310.069 709.003 309.393C694.457 307.881 678.221 307.442 664.78 301.399C665.842 315.97 667.608 330.763 655.784 341.63C650.83 346.184 644.605 351.4 638.109 353.341C629.735 355.844 621.709 357.918 613.188 359.775C597.343 363.228 581.6 371.492 567.305 378.915C560.582 382.407 552.692 383.768 545.402 385.725C541.931 386.658 538.019 387.887 534.378 387.757C530.79 387.629 528.3 385.191 525.133 383.735C522.103 390.874 518.012 397.41 514.962 404.455C513.45 407.951 512.258 411.667 510.496 415.048C509.152 417.625 506.978 419.01 506.773 421.998C506.273 429.252 507.6 436.819 507.244 444.155C506.856 452.156 505.613 460.276 504.88 468.287C503.295 485.598 504.035 503.028 502.749 520.362C501.574 536.198 502.308 551.912 500.551 567.762C500.064 572.161 499.523 576.556 499.171 580.97C498.94 583.866 497.337 590.534 498.847 593.13C499.507 594.265 501.093 594.387 502.154 594.955C503.809 595.843 505.314 597.201 506.551 598.614C509.162 601.597 509.786 605.15 510.381 608.951C513.761 607.133 527.93 597.803 525.808 608.021C525.151 611.19 522.276 612.898 520.008 614.92C518.345 616.402 516.759 617.974 514.99 619.332C513.797 620.248 511.269 621.384 510.693 622.88C509.665 625.554 514.977 629.372 517.483 629.342C521.005 629.302 525.4 624.018 528.384 622.334C536.303 617.861 535.588 627.52 532.602 631.718C530.349 634.886 532.254 634.642 535.353 635.285C540.196 636.291 544.669 637.149 549.592 637.763C559.001 638.937 568.259 637.421 577.596 639.593C586.892 641.758 592.419 647.558 593.773 657.123C594.489 662.176 595.161 659.639 599.403 660.824C603.322 661.92 605.535 666.4 607.79 669.438C612.293 675.5 620.71 690.771 613.814 697.918C610.886 700.953 603.776 700.182 599.922 700.701C597.442 701.033 594.457 702.19 591.955 701.591C589.577 701.022 587.995 698.894 586.279 697.334C586.256 706.928 586.199 715.262 578.596 722.189C572.462 727.78 564.259 730.346 556.033 729.78C547.972 729.226 539.694 725.946 534.586 719.466C531.89 716.047 529.971 711.853 529.276 707.545C528.955 705.56 528.863 703.473 529.173 701.479C529.358 700.294 530.485 698.145 529.77 697.001C528.515 694.997 522.369 696.663 520.341 696.867C514.986 697.408 509.646 698.083 504.311 698.798C499.901 699.389 495.402 700.016 490.977 699.18C487.174 698.462 485.72 698.052 486.405 702.552C487.78 711.606 485.489 719.637 478.044 725.204C470.593 730.774 463.717 731.877 454.606 730.411C446.281 729.07 438.666 721.21 436.241 713.389C433.013 702.98 436.341 693.498 444.115 686.392C439.4 684.003 436.273 682.593 434.61 677.076C432.871 671.309 434.496 665.244 435.318 659.461C437.084 647.042 436.396 634.955 437.003 622.496C437.269 616.999 438.405 611.403 438.423 605.92C438.433 602.794 438.26 602.906 435.042 602.881C433.046 602.866 430.93 603.005 430.09 600.679C428.061 595.068 437.58 595.542 439.974 593.308C442.829 590.645 440.857 580.138 440.774 576.441C440.503 564.431 441.69 552.7 441.923 540.722C442.029 535.311 442.358 529.622 441.911 524.23C441.732 522.078 440.501 520.339 440.583 518.197C440.687 515.455 441.216 512.892 441.074 510.038C439.833 484.938 439.56 459.374 442.781 434.439C442.973 432.946 444.028 429.585 443.464 428.085C442.609 425.814 439.894 426.619 437.997 425.787C432.69 423.461 431.378 419.768 431.089 414.361C430.917 411.157 430.747 407.952 430.581 404.747C430.495 403.101 430.411 401.454 430.322 399.807C430.218 397.899 431.003 395.753 430.958 394.15C430.943 393.636 430.721 392.867 430.717 392.563C430.102 392.261 429.863 391.818 429.997 391.232C429.969 390.681 430.058 390.144 430.261 389.622C430.293 389.934 429.892 387.855 429.857 388.038C429.913 387.754 430.953 386.067 430.849 385.863C430.363 384.908 429.333 386.068 428.989 384.289C428.702 382.795 429.674 381.039 429.348 379.29C428.476 374.622 429.299 370.434 429.959 365.71Z" fill="black"/>
<path fill-rule="evenodd" clip-rule="evenodd" d="M171.657 439C230.616 439.136 289.713 440.59 348.523 442.331C355.004 442.523 361.506 443.071 367.99 443.349C369.118 443.396 372.828 442.925 373.664 444.133C375.024 446.104 371.91 448.108 370.443 449.007C365.395 452.097 358.713 451.557 352.992 451.753C345.099 452.02 337.202 452.05 329.305 451.94C301.868 451.559 274.418 449.474 247.039 447.852C230.174 446.853 213.256 446.241 196.367 445.744C188.031 445.499 179.688 445.363 171.352 445.088C169.101 445.014 165 445.716 165 442.758C165 439.675 169.498 439.167 171.657 439Z" fill="black"/>
<path fill-rule="evenodd" clip-rule="evenodd" d="M242.168 472.163C283.888 473.961 325.637 475.193 367.361 476.858C370.066 476.967 375.824 476.169 376.839 479.488C377.896 482.938 373.497 486.4 370.586 487.295C366.806 488.457 361.993 487.806 358.048 487.917C352.739 488.067 347.694 488.02 342.403 487.662C322.242 486.297 302.114 484.525 281.948 483.156C270.532 482.382 259.124 481.465 247.725 480.481C244.685 480.219 235.657 481.033 233.528 478.556C232.216 477.03 233.606 474.671 234.902 473.494C237.037 471.557 239.491 471.996 242.168 472.163Z" fill="black"/>
<path fill-rule="evenodd" clip-rule="evenodd" d="M365.268 517.773C351.71 518.502 338.001 517.428 324.674 515.19C322.858 514.884 318.661 514.85 317.501 513.163C315.728 510.588 319.059 508.342 321.299 508.114C327.507 507.484 334.888 509.65 341.152 510.032C347.704 510.431 354.346 509.733 360.914 509.681C364.669 509.651 368.423 509.625 372.179 509.613C374.382 509.606 377.548 509.049 379.723 509.549C385.809 510.947 378.069 516.071 375.359 516.662C374.418 516.867 365.299 518.219 365.268 517.773Z" fill="black"/>
<path fill-rule="evenodd" clip-rule="evenodd" d="M661.132 192.521C661.222 190.93 660.809 186.909 662.778 186.155C666.617 184.685 666.363 194.11 667.859 195.437C673.351 200.302 671.871 181.558 677.104 187.603C681.356 192.515 677.941 204.351 671.959 206.559C667.553 208.185 664.554 205.056 662.842 201.432C662.802 201.348 660.422 192.483 661.132 192.521Z" fill="black"/>
<path fill-rule="evenodd" clip-rule="evenodd" d="M666.105 171.06C668.755 170.556 672.206 173.309 670.582 175.975C669.395 177.925 661.351 180.948 659.172 180.999C656.497 181.062 656.724 178.934 657.579 176.768C658.915 173.377 662.481 171.022 666.105 171.06Z" fill="black"/>
<path fill-rule="evenodd" clip-rule="evenodd" d="M183 128.352C183.815 124.96 185.016 120.942 189.031 124.211C191.727 126.408 193.698 131.825 193.969 135.213C194.293 139.27 192.066 141.333 188.466 139.057C184.813 136.748 183.42 132.491 183 128.352Z" fill="black"/>
<path fill-rule="evenodd" clip-rule="evenodd" d="M96 171.003C94.694 180.073 86.6495 171.632 87.0119 166.099C87.2 163.22 88.849 160.86 91.981 162.587C94.7848 164.134 95.7609 168.202 96 171.003Z" fill="black"/>
<path fill-rule="evenodd" clip-rule="evenodd" d="M554 701.089C554.598 698.837 554.729 694.202 557.334 693.214C561.187 691.753 562.859 698.157 562.987 700.735C563.127 703.528 562.151 709.464 558.151 708.971C554.871 708.567 554.655 703.535 554 701.089Z" fill="black"/>
<path fill-rule="evenodd" clip-rule="evenodd" d="M457 704.682C457.737 701.926 457.88 696.946 461.192 696.112C464.838 695.193 465.955 700.164 465.999 702.975C466.041 705.601 464.571 712.403 460.854 711.981C457.993 711.657 457.612 706.91 457 704.682Z" fill="black"/>
</g>
<defs>
<filter id="filter0_dd_15_282" x="-4" y="0" width="1032" height="776" filterUnits="userSpaceOnUse" color-interpolation-filters="sRGB">
<feFlood flood-opacity="0" result="BackgroundImageFix"/>
<feColorMatrix in="SourceAlpha" type="matrix" values="0 0 0 0 0 0 0 0 0 0 0 0 0 0 0 0 0 0 127 0" result="hardAlpha"/>
<feOffset dy="4"/>
<feGaussianBlur stdDeviation="2"/>
<feComposite in2="hardAlpha" operator="out"/>
<feColorMatrix type="matrix" values="0 0 0 0 0 0 0 0 0 0 0 0 0 0 0 0 0 0 0.25 0"/>
<feBlend mode="normal" in2="BackgroundImageFix" result="effect1_dropShadow_15_282"/>
<feColorMatrix in="SourceAlpha" type="matrix" values="0 0 0 0 0 0 0 0 0 0 0 0 0 0 0 0 0 0 127 0" result="hardAlpha"/>
<feOffset dy="4"/>
<feGaussianBlur stdDeviation="2"/>
<feComposite in2="hardAlpha" operator="out"/>
<feColorMatrix type="matrix" values="0 0 0 0 0 0 0 0 0 0 0 0 0 0 0 0 0 0 0.25 0"/>
<feBlend mode="normal" in2="effect1_dropShadow_15_282" result="effect2_dropShadow_15_282"/>
<feBlend mode="normal" in="SourceGraphic" in2="effect2_dropShadow_15_282" result="shape"/>
</filter>
</defs>
</svg>
