<svg width="1024" height="768" viewBox="0 0 1024 768" fill="none" xmlns="http://www.w3.org/2000/svg">
<g filter="url(#filter0_d_15_302)">
<path fill-rule="evenodd" clip-rule="evenodd" d="M530.199 382.002L530.353 382.02C532.588 382.453 536.292 388.846 537.809 390.663C542.7 396.524 547.591 402.384 552.482 408.244C554.439 410.59 557.262 413.053 558.656 415.767C559.729 417.856 560.097 420.735 560.737 422.973C568.691 450.776 576.469 478.758 582.262 507.103C583.509 513.204 584.692 519.347 585.385 525.54C585.727 528.601 586.626 533.1 585.293 536.058C583.79 539.392 578.954 540.778 575.812 541.811C569.7 543.823 563.3 545.021 556.968 546.096C541.711 548.685 526.263 550.19 510.844 551.407C506.133 551.778 501.284 551.772 496.603 552.405C494.368 552.707 495.038 552.107 494.333 553.608C493.352 555.697 494.003 560.054 493.886 562.331C493.612 567.686 493.338 573.04 493.064 578.396L490.82 622.216C490.061 637.024 489.303 651.833 488.544 666.642C488.257 672.253 487.97 677.864 487.683 683.476C487.529 686.475 487.986 690.347 487.182 693.251C486.574 695.447 487.574 694.8 484.881 694.93C478.645 695.231 472.184 694.476 465.946 694.253C458.872 694 451.796 693.747 444.72 693.494C442.699 693.421 440.441 693.995 439.627 692.546C438.635 690.782 439.39 685.931 439.32 683.961C439.124 678.472 438.928 672.981 438.731 667.492C438.192 652.422 437.653 637.352 437.114 622.283C436.379 601.731 435.643 581.178 434.908 560.624C427.04 562.208 419.172 563.792 411.303 565.375C399.677 567.715 388.05 570.055 376.423 572.394C371.091 573.467 364.758 575.916 359.252 575.126C353.783 574.341 351.522 572.005 351.215 566.814C350.885 561.249 351.014 555.64 351.088 550.07C351.211 540.96 351.473 531.851 351.817 522.746C367.351 521.347 382.886 519.947 398.42 518.548C406.692 517.802 414.965 517.058 423.235 516.312C425.112 516.144 429.74 516.506 430.578 515.091C431.881 512.891 430.431 505.658 430.392 503.17L430.021 479.648L428.663 393.102C432.383 393.224 436.102 393.335 439.821 393.439C456.002 393.896 472.263 394.558 488.449 394.06C496.566 393.811 504.257 391.621 511.92 389.037C515.994 387.664 520.027 386.168 524.029 384.595C525.288 384.1 528.994 381.758 530.353 382.02L530.199 382.002ZM508.414 462.536L500.148 502.967L528.435 501.093L508.414 462.536Z" fill="#F38181"/>
<path fill-rule="evenodd" clip-rule="evenodd" d="M744.689 134.63C744.111 139.127 744.522 144.03 739.446 145.216C734.748 146.314 729.593 146.006 724.803 146.39C719.42 146.823 714.053 147.413 708.681 147.946C701.909 148.617 702.875 146.014 701.394 140.23C700.041 134.948 697.882 129.677 696.085 124.526C695.251 122.132 694.254 119.929 693.116 117.673C692.085 115.63 692.575 112.852 691.464 111.135C687.672 105.278 669.18 121.295 667.462 118.138C670.591 115.702 676.006 112.976 676.966 108.808C678.095 103.909 674.982 102.446 671.07 104.237C661.445 108.647 650.336 112.093 639.838 113.7C643.233 111.431 673.94 93.5439 663.635 88.2381C661.312 87.0424 658.21 89.2933 656.116 90.1447C652.791 91.4968 649.319 92.4031 645.849 93.2889C642.192 94.2222 638.526 95.1201 634.849 95.9688C632.27 96.5643 627.673 98.6793 625.16 98.1573C622.609 97.6269 627.128 96.0432 627.868 95.6701C631.095 94.0445 634.269 92.2979 637.419 90.529C643.007 87.3905 648.169 83.755 652.419 78.9024C655.626 75.2409 660.921 67.2451 658.689 62.1822C657.395 59.2474 654.56 56.535 652.894 53.7547C650.949 50.5072 649.379 47.0458 647.689 43.6624C650.517 44.9056 653.69 45.2238 656.576 46.3395C659.462 47.4561 662.393 48.3596 665.395 49.1896C671.418 50.8543 677.424 51.1502 683.393 52.5004C690.15 54.0282 697.19 55.7366 704.055 56.6197C710.031 57.3874 715.406 59.0232 720.527 62.2818C730.985 68.9386 738.24 78.5014 741.909 90.3271C744.059 97.2547 744.582 104.483 744.835 111.691C745.102 119.29 745.662 127.064 744.689 134.63ZM685.997 135.189C678.694 140.513 670.181 144.673 662.344 149.202C657.859 151.792 653.279 154.214 648.705 156.642C645.459 158.365 641.515 161.537 637.942 162.421C635.681 162.98 635.85 163.023 634.419 160.962C633.052 158.994 631.858 156.875 630.578 154.848C628.219 151.111 625.838 147.388 623.456 143.665C618.117 135.32 612.788 126.976 607.178 118.808C601.55 110.612 596.151 102.265 590.7 93.9533C588.166 90.0889 585.647 86.2096 582.958 82.4514C580.905 79.5817 575.641 75.2046 578.14 71.8259C580.462 68.6874 585.752 66.0801 588.881 63.7045C592.704 60.8042 596.551 57.9336 600.364 55.0183C608.561 48.7514 616.543 42.2118 624.733 35.9365C631.683 48.127 639.86 59.5554 648.107 70.8889C640.649 75.6484 633.114 80.1726 625.255 84.2472C619.45 87.2565 610.57 91.3228 606.903 97.0314C603.292 102.653 606.839 109.138 613.277 109.241C617.128 109.303 620.966 108.283 624.74 107.701C627.465 107.28 632.441 105.316 634.898 106.7C630.482 109.518 614.46 117.729 623.097 124.929C629.27 130.075 639.706 122.565 646.374 124.111C644.342 128.012 642.229 134.234 647.871 136.355C652.566 138.121 658.711 134.83 662.936 133.085C665.99 131.824 669.024 130.52 672.026 129.144C674.413 128.049 677.272 125.83 679.823 125.358C682.799 124.806 688.86 133.101 685.997 135.189ZM550.236 422.688C554.414 421.926 556.559 420.198 557.875 425.272C559.055 429.816 560.223 434.193 561.741 438.653C555.215 439.217 549.458 442.333 544.698 446.717C541.309 449.84 534.568 457.296 536.24 462.526C540.299 475.237 560.804 446.722 563.241 443.675C566.223 448.034 567.321 453.742 568.803 458.728C569.859 462.276 573.775 469.078 568.598 469.94C561.33 471.152 547.695 473.858 548.557 484.151C549.575 496.3 565.03 496.232 573.701 496.778C578.59 497.085 578.612 501.002 579.308 505.386C579.62 507.346 580.593 509.996 578.928 511.431C577.45 512.705 572.923 512.741 571 513.153C565.391 514.357 559.787 515.584 554.18 516.787C547.814 518.153 544.448 516.24 538.497 514.496C536.293 513.851 534.08 514.123 533.918 511.657C533.819 510.143 535.3 507.802 535.785 506.305C537.706 500.382 539.341 494.284 539.893 488.064C540.696 479.026 539.693 465.475 528.564 463.711C523.27 462.872 522.252 462.599 519.862 457.63C517.276 452.257 513.172 447.281 514.164 441.091C514.882 436.606 513.671 428.119 516.534 424.399C517.857 422.679 520.437 421.653 522.198 420.391C524.442 418.781 526.603 417.058 528.694 415.256C530.453 413.741 532.597 410.779 534.591 409.685C537.028 408.347 537.102 409.259 538.852 411.348C541.434 414.434 545.54 423.545 550.236 422.688ZM562.046 442.768C560.598 445.69 557.251 448.408 555.12 450.847C552.976 453.301 550.947 455.894 548.555 458.118C545.923 460.566 536.575 466.479 538.634 458.52C540.237 452.33 546.234 447.316 551.513 444.227C552.534 443.628 564.496 437.823 562.046 442.768ZM572.273 472.239C573.2 476.382 573.698 480.653 574.49 484.826C574.895 486.96 577.139 492.114 576.224 494.166C574.675 497.644 560.727 493.527 557.835 492.33C550.953 489.481 547.794 482.167 554.141 476.958C556.547 474.985 571.346 468.097 572.273 472.239ZM581.416 522.002C582.193 525.957 584.466 529.625 580.709 532.615C577.59 535.098 572.478 536.792 568.635 537.676C563.395 538.88 561.711 535.944 558.937 532.168C555.955 528.108 552.781 524.185 549.487 520.373C559.831 518.057 570.173 515.741 580.517 513.426C580.511 516.308 580.861 519.178 581.416 522.002ZM556.633 540.36C551.239 540.081 545.435 541.704 539.965 542.131C533.133 542.665 526.321 543.441 519.483 543.899C521.235 538.31 524.381 533.325 526.843 528.045C529.312 522.747 531.046 522.174 536.726 521.766C541.99 521.387 545.702 519.575 549.587 524.041C553.629 528.685 557.289 533.732 560.979 538.655C559.724 539.495 558.223 540.443 556.633 540.36ZM518.076 541.501C516.745 542.47 512.641 539.714 511.258 539.18C508.567 538.14 507.971 537.806 506.566 535.181C505.36 532.925 503.441 530.361 503.063 527.785C502.565 524.39 504.067 519.92 504.614 516.547C506.07 520.059 510.851 520.466 514.082 521.041C516.524 521.476 523.763 520.783 525.605 522.523C527.64 524.445 523.893 529.806 522.917 531.825C521.752 534.235 520.313 539.871 518.076 541.501ZM515.468 544.286C513.867 544.545 509.257 546.138 509.349 543.213C509.452 539.871 515.795 543.476 515.468 544.286ZM507.345 544.111C507.053 546.924 500.998 546.691 500.86 544.216C500.624 540.033 507.811 539.617 507.345 544.111ZM500.422 468.231C498.875 472.64 489.446 474.217 485.825 475.574C482.518 476.814 472.639 482.536 469.229 480.461C480.771 472.528 492.599 464.755 502.378 454.626C502.779 457.128 502.169 459.218 501.431 461.586C500.766 463.724 501.108 466.278 500.422 468.231ZM497.552 484.308C495.891 495.108 494.261 506.049 492.014 516.741C487.731 515.432 484.199 512.78 479.699 511.856C475.593 511.013 471.351 510.992 467.212 511.608C458.389 512.92 450.524 517.284 442.827 521.537C442.116 514.131 440.643 506.205 440.817 498.773C440.962 492.599 451.526 490.771 456.318 488.221C459.217 486.678 461.839 484.508 465.142 483.97C468.541 483.416 471.82 483.433 475.178 482.397C483.116 479.948 490.586 476.065 498.363 473.171C498.998 476.878 498.115 480.655 497.552 484.308ZM490.135 530.013C489.782 532.468 490.227 536.849 488.356 538.72C486.595 540.483 482.832 540.54 480.509 541.018C473.432 542.474 466.362 543.944 459.296 545.446C456.134 546.118 452.972 546.76 449.797 547.36C448.283 547.646 444.485 549.098 443.21 547.893C442 546.749 442.901 543.094 442.966 541.56C443.097 538.497 443.27 535.424 443.077 532.36C442.709 526.482 443.036 524.231 448.506 521.19C454.318 517.959 460.321 515.747 466.863 514.549C473.486 513.337 479.796 514 486.1 516.543C487.855 517.25 490.486 518.122 491.303 520.013C492.413 522.587 490.509 527.405 490.135 530.013ZM482.167 624.759C479.574 626.386 473.929 626.108 470.949 626.439C466.138 626.97 461.296 626.667 456.516 625.924C452.918 625.366 447.548 624.592 444.79 622.066C440.872 618.477 445.393 618.313 448.392 618.565C457.109 619.298 465.937 618.786 474.646 618.156C476.342 618.033 480.899 616.545 482.534 617.242C484.624 618.132 483.984 623.62 482.167 624.759ZM477.225 682.763C460.983 681.185 451.566 667.735 445.676 653.986C442.515 646.604 443.655 638.859 443.343 631.053C443.286 629.627 442.391 626.089 443.857 625.024C445.234 624.023 450.806 627.117 452.313 627.486C460.038 629.38 468.582 629.561 476.324 627.722C479.678 626.925 481.556 625.444 482.622 628.768C483.48 631.445 482.072 636.377 481.918 639.183C481.653 644.035 482.413 683.266 477.225 682.763ZM444.779 682.778C444.717 680.422 443.528 656.615 444.681 656.543C448.108 663.935 451.628 670.547 457.866 675.985C461.053 678.764 464.636 681.268 468.621 682.76C470.118 683.32 478.602 683.745 479.018 685.603C479.745 688.854 473.953 687.542 472.235 687.278C470.857 687.065 469.617 686.477 468.264 686.232C465.688 685.765 463.254 686.393 460.666 686.445C456.735 686.525 452.875 686.113 448.942 686.453C445.347 686.763 444.875 686.35 444.779 682.778ZM447.177 575.995C461.081 571.501 472.701 580.012 480.039 591.152C484.223 597.505 485.159 601.947 484.427 609.469C484.165 612.162 484.649 613.985 482.173 615.082C479.723 616.169 474.155 615.363 471.504 615.487C463.879 615.843 456.283 616.317 448.658 615.864C443.705 615.571 443.005 614.732 443.091 609.924C443.193 604.136 442.712 598.375 442.385 592.578C442.03 586.306 439.877 578.354 447.177 575.995ZM442.627 567.659C442.635 563.406 442.38 559.043 442.64 554.797C442.898 550.588 444.69 550.796 448.664 550.078C457.27 548.522 465.864 546.781 474.354 544.672C477.711 543.838 481.506 542.237 485.004 542.224C488.675 542.21 488.48 544.098 488.235 547.348C487.691 554.547 486.372 561.64 485.971 568.801C485.538 576.53 485.311 584.359 485.346 592.096C485.358 594.708 485.992 596.642 483.766 594.198C481.536 591.749 480.446 587.848 478.455 585.096C474.378 579.462 468.318 574.93 461.593 573.021C457.875 571.966 453.965 571.783 450.174 572.547C449.024 572.778 443.263 575.528 442.53 574.985C442.034 574.617 442.626 567.831 442.627 567.659ZM493.493 715.044C499.008 718.993 505.115 722.184 511.297 724.954C514.776 726.512 528.546 729.792 528.985 733.3C529.22 735.171 526.938 737.269 525.443 737.49C523.547 737.771 520.423 736.533 518.492 736.298C511.469 735.446 504.46 735.44 497.608 733.485C483.927 729.581 469.743 728.481 455.92 725.077C452.631 724.268 449.335 723.509 446.029 722.775C442.889 722.078 441.482 722.197 441.371 718.842C441.126 711.477 443.239 703.932 443.256 696.476C454.438 697.752 465.659 697.736 476.873 698.786C481.678 699.236 481.566 700.146 483.671 704.345C485.857 708.701 489.575 712.239 493.493 715.044ZM438.968 475.77C438.827 473.043 438.716 470.31 438.469 467.591C438.304 465.764 436.635 460.658 437.576 459.236C438.694 457.547 439.82 458.578 441.82 458.53C444.456 458.468 446.664 457.408 448.838 456.021C452.955 453.395 456.016 449.938 458.688 445.904C461.039 442.353 460.601 437.502 460.572 433.251C460.498 422.257 461.299 411.534 460.628 400.491C460.32 395.419 464.65 398.53 468.146 399.187C473.865 400.261 480.081 399.517 485.893 399.531C485.677 400.883 473.792 404.239 471.872 405.517C466.956 408.786 464.089 414.016 464.538 419.979C465.44 431.975 478.651 433.98 488.305 434.003C480.296 441.085 472.43 447.837 466.135 456.574C461.494 463.015 453.319 475.716 460.907 482.843C454.199 486.652 447.552 490.89 439.966 492.723C439.626 487.073 439.262 481.423 438.968 475.77ZM435.923 256.791C438.654 258.545 439.802 256.065 441.88 254.781C444.807 252.971 445.776 253.149 446.147 249.108C446.834 241.613 443.681 234.828 439.722 228.695C437.923 225.907 436.128 222.587 433.588 220.408C431.273 218.421 428.932 219.105 426.787 217.051C425.945 216.244 426.125 215.104 424.733 215.136C423.816 215.158 421.588 217.998 420.831 218.625C418.439 220.605 415.513 222.112 412.378 220.479C407.814 218.103 409.28 209.477 412.825 206.683C415.555 204.531 418.78 204.864 421.888 204.516C424.218 204.257 424.703 204.358 423.744 201.691C423.073 199.824 421.524 198.367 420.759 196.54C419.289 193.033 419.609 188.771 418.974 185.059C418.403 181.733 417.07 178.136 417.118 174.758C417.182 170.457 418.587 169.34 422.313 168.134C425.923 166.966 428.912 164.391 431.987 162.228C435.468 159.779 439.28 158.162 442.856 155.926C445.285 154.407 446.852 151.337 449.522 152.771C452.694 154.475 456.049 159.408 458.747 161.928C454.8 164.434 453.882 165.53 454.425 170.436C454.925 174.933 455.841 178.941 459.279 182.074C460.599 183.278 463.063 184.242 464.087 185.63C465.281 187.247 464.504 185.822 464.354 187.647C464.274 188.632 463.495 189.276 463.664 190.414C464.422 195.468 470.228 192.485 472.621 190.729C481.17 184.456 465.207 179.474 461.416 177.189C458.798 175.609 457.503 170.57 461.651 171.909C464.41 172.799 470.644 180.349 471.277 173.467C478.119 177.442 482.341 185.886 488.079 191.225C492.216 195.076 497.774 199.347 494.489 205.496C490.305 213.335 482.006 216.893 474.431 220.275C467.082 223.555 468.609 232.838 472.536 238.52C474.807 241.804 477.782 243.729 481.361 245.325C485.018 246.956 485.777 248.872 486.576 252.655C487.463 256.852 486.521 258.543 482.887 260.711C479.339 262.829 475.63 264.88 471.842 266.537C463.651 270.121 455.154 270.348 446.442 271.569C443.389 271.997 440.461 272.889 438.795 269.862C436.922 266.455 436.784 260.589 435.923 256.791ZM434.606 240.489C432.556 239.408 427.607 242.997 425.015 243.155C420.822 243.409 418.069 243.313 414.348 245.537C407.312 249.741 401.474 255.153 395.832 261.023C389.478 267.634 383.159 274.28 376.826 280.911C373.956 283.914 371.071 286.902 368.155 289.86C365.858 292.192 363.611 295.471 360.767 297.135C360.915 295.159 362.127 293.76 362.557 291.928C362.807 290.857 362.37 289.948 362.531 288.922C362.585 288.589 363.479 287.432 363.615 287.052C363.978 286.05 364.422 285.06 364.853 284.019C365.255 283.048 365.196 282.041 365.604 281.027C366.023 279.981 367.172 279.289 367.57 278.259C368.738 275.244 366.805 273.846 363.713 273.917C364.923 267.885 365.452 264.934 371.759 262.807C377.785 260.775 383.671 258.493 389.207 255.317C394.122 252.498 398.222 248.434 402.947 245.292C407.177 242.478 412.443 239.53 412.399 233.76C414.797 235.387 417.045 236.756 419.788 235.136C422.104 233.769 422.411 232.668 425.087 232.41C427.273 232.201 428.627 232.145 430.576 233.106C432.871 234.236 433.185 235.022 434.521 231.695C436.04 232.973 439.88 238.298 439.752 240.406C439.682 241.567 439.506 242.091 438.067 242.397C436.026 242.831 436.105 241.279 434.606 240.489ZM425.046 555.644C424.048 557.173 419.842 556.891 418.218 556.871C413.267 556.806 411.536 552.651 409.364 548.636C405.939 542.305 400.821 529.156 406.439 522.512C410.874 517.268 419.511 523.875 422.536 527.835C425.149 531.257 424.373 536.388 424.616 540.494C424.82 543.954 427.017 552.627 425.046 555.644ZM411.519 557.937C409.54 559.916 403.116 559.497 400.493 559.923C395.812 560.68 391.157 561.591 386.615 562.974C383.234 564.003 379.892 566.772 379 562.059C378.252 558.097 378.624 553.344 378.696 549.345C378.773 545.03 379.225 540.77 379.6 536.475C379.854 533.57 379.218 528.226 381.589 525.996C383.633 524.075 388.602 523.89 391.255 523.253C395.612 522.208 400.164 520.836 404.692 521.304C402.05 528.475 401.826 535.996 404.659 543.142C405.466 545.182 412.742 556.714 411.519 557.937ZM378.226 529.368C377.122 540.155 376.012 551.01 377.075 561.852C377.139 562.498 377.912 565.46 377.576 565.923C377.228 566.404 374.479 566.652 373.855 566.799C371.376 567.387 368.9 568.011 366.405 568.533C361.549 569.548 360.915 566.48 359.962 561.979C357.921 552.336 361.878 541.881 364.276 532.62C365.443 528.11 366.309 527.59 370.744 527.216C373.83 526.957 378.695 524.784 378.226 529.368ZM359.473 569.613C357.618 571.301 355.763 563.337 355.599 562.525C354.95 559.302 355.311 556.033 355.321 552.76C355.337 547.646 354.946 542.557 354.938 537.468C354.934 534.715 352.871 529.088 356.129 527.631C357.084 527.204 360.881 527.382 361.743 527.944C363.533 529.113 362.827 529.87 362.297 531.903C361.109 536.467 360.083 541.052 359.049 545.653C358.035 550.164 357.034 554.505 357.517 559.164C357.676 560.705 360.656 568.537 359.473 569.613ZM418.658 519.351C423.181 518.076 423.423 521.542 423.416 524.859C422.726 524.331 416.297 520.016 418.658 519.351ZM358.144 275.852C357.036 277.679 350.015 278.178 348.009 278.659C344.062 279.604 340.113 280.543 336.176 281.528C328.801 283.372 321.607 285.452 314.046 286.417C318.198 279.77 319.49 274.03 318.717 265.734C317.743 255.26 316.504 244.893 314.093 234.641C311.716 224.531 308.964 214.489 306.313 204.447C305.011 199.513 303.603 194.674 301.871 189.873C300.483 186.026 298.314 181.182 300.671 177.238C306.651 181.601 311.448 186.302 314.859 192.93C318.513 200.035 321.704 207.329 325.945 214.127C327.884 217.235 330.148 220.069 332.223 223.077C333.457 224.867 334.356 227.45 335.928 228.96C337.74 230.7 339.672 231.521 340.708 228.584C341.819 225.432 338.274 219.196 337.228 216.236C334.701 209.091 332.196 201.96 330.247 194.631C328.67 188.706 326.065 181.543 326.987 175.292C327.9 169.103 332.099 173.533 334.224 176.41C338.604 182.342 341.227 189.256 344.104 195.981C346.749 202.159 349.835 208.05 352.761 214.085C353.78 216.185 355.122 221.61 357.789 222.234C361.666 223.143 361.337 217.683 360.967 215.468C358.51 200.781 352.096 186.719 350.765 171.778C350.701 171.064 349.774 165.513 350.519 165.049C351.965 164.15 353.915 169.782 354.538 171.162C357.781 178.339 360.04 185.905 362.113 193.486C363.875 199.934 365.47 206.43 367.448 212.817C368.535 216.327 369.781 219.779 371.01 223.242C372.121 226.379 373.249 231.739 376.147 233.806C380.259 236.738 394.972 229.767 396.463 235.999C397.524 240.429 383.881 243.997 380.975 245.342C377.15 247.113 373.398 249.052 369.571 250.825C366.674 252.166 362.51 252.716 360.414 255.239C358.194 257.912 357.838 261.666 357.772 264.982C357.721 267.492 359.46 273.686 358.144 275.852ZM348.846 324.226C348.652 325.618 347.545 327.462 347.047 328.787C346.034 331.486 345.172 334.711 343.762 337.233C342.549 339.405 340.76 341.347 339.588 343.551C338.477 345.643 338.329 348.055 337.031 350.149C335.545 352.543 333.09 354.264 331.615 356.642C330.888 357.816 330.137 359.156 329.11 360.405C325.472 364.832 321.86 369.008 318.934 373.75C318.186 374.964 314.531 380.263 313.076 380.55C310.036 381.147 313.575 376.825 314.17 375.931C318.478 369.466 322.304 362.659 326.462 356.093C330.49 349.736 334.612 343.428 338.488 336.975C341.649 331.714 343.835 324.161 348.974 320.455C348.993 321.715 348.951 322.972 348.846 324.226ZM489.32 264.807C491.823 275.095 494.816 285.064 497.637 295.26C500.255 304.72 503.738 314.844 504.823 324.597C505.898 334.258 508.368 344.033 511.69 353.203C513.225 357.446 514.805 361.705 516.471 365.899C517.387 368.203 518.411 370.455 519.45 372.705C520.257 374.453 522.389 377.284 522.471 379.136C522.537 380.62 523.052 380.027 521.588 381.142C520.072 382.296 517.446 381.877 515.68 382.08C511.075 382.613 506.585 384.345 502.096 385.467C493.438 387.631 483.118 389.349 474.246 387.843C470.514 387.209 466.638 386.66 462.947 385.835C458.407 384.819 457.473 382.94 456.542 378.478C454.504 368.721 452.748 358.99 451.066 349.169C449.065 337.486 446.899 325.817 445.355 314.062C443.796 302.17 442.675 290.266 440.231 278.503C450.09 280.152 459.374 282.014 469.261 279.313C478.017 276.921 484.338 272.245 489.32 264.807ZM527.912 392.174C530.116 396.716 524.804 400.8 522.229 404.299C518.834 408.91 515.664 413.729 511.715 417.9C510.53 413.16 509.491 407.826 506.33 403.933C502.293 398.962 497.581 400.993 492.635 398.641C497.822 396.118 504.445 397.081 509.947 394.831C515.374 392.612 520.854 390.87 525.904 387.987C526.575 389.382 527.237 390.781 527.912 392.174ZM508.677 498.156C505.362 498.34 507.58 491.349 507.795 489.612C508.387 484.837 508.985 480.062 509.504 475.279C512.239 482.491 514.973 489.703 517.706 496.915C514.701 497.344 511.716 497.987 508.677 498.156ZM503.285 532.73C503.737 533.735 505.846 537.084 504.181 537.702C501.899 538.548 501.625 533 503.285 532.73ZM499.33 455.033C488.77 463.464 478.283 471.917 466.857 479.175C464.354 480.766 461.833 481.431 460.173 478.278C458.869 475.798 460.247 473.004 461.083 470.577C463.216 464.388 466.933 459.008 471.051 453.971C479.276 443.912 489.065 435.321 501.557 431.355C503.6 430.706 506.755 428.748 507.471 431.452C507.893 433.042 506.109 437.014 505.747 438.506C504.255 444.67 504.58 450.843 499.33 455.033ZM529.728 516.521C529.96 523.68 510.39 517.906 507.951 516.626C510.51 515.768 529.623 513.303 529.728 516.521ZM536.995 516.566C538.158 516.876 542.617 517.269 540.951 518.793C539.461 520.158 532.709 519.61 530.919 519.778C532.121 515.828 533.034 515.512 536.995 516.566ZM533.369 506.976C532.932 508.569 532.754 510.999 531.327 512.09C529.548 513.451 525.769 512.624 523.756 512.635C520.336 512.653 516.921 512.828 513.518 513.168C512.216 513.297 506.943 514.886 505.723 513.802C504.827 513.006 505.161 509.27 505.814 508.43C507.154 506.704 510.24 507.302 512.174 507.233C519.25 506.98 526.289 506.959 533.369 506.976ZM528.826 480.514C527.827 479.029 527.649 479.045 527.222 476.803C526.767 474.403 525.609 472.35 524.927 470.031C523.429 464.929 528.217 465.382 531.73 467.253C540.841 472.107 538.642 489.069 536.388 497.009C533.113 494.601 531.904 493.509 530.777 489.623C530.348 488.146 529.868 486.696 529.422 485.227C529.095 484.146 529.323 481.253 528.826 480.514ZM529.615 397.961C532.159 397.654 534.486 405.547 533.759 407.255C532.272 410.749 526.589 413.87 523.694 416.1C521.767 417.585 519.853 419.287 517.793 420.582C515.88 421.783 514.78 421.109 513.002 421.686C510.429 422.519 509.805 425.242 507.171 426.412C503.465 428.059 498.974 428.52 495.104 430.007C490.407 431.811 486.103 431.86 481.179 431.005C474.098 429.776 465.797 426.262 466.436 417.658C467.561 402.476 497.711 394.697 505.934 407.57C508.074 410.92 508.041 414.826 509.43 418.425C510.935 422.32 512.394 420.789 514.658 417.921C517.619 414.167 520.37 410.212 523.215 406.369C524.135 405.127 527.779 398.185 529.615 397.961ZM344.842 545.778C344.697 548.36 344.852 550.979 343.954 553.443C343.049 555.927 341.215 557.936 340.158 560.351C338.017 565.244 338.033 571.165 338.118 576.408C338.318 588.608 341.206 600.457 342.735 612.511C337.648 612.499 332.391 612.556 327.462 611.102C323.059 609.803 322.356 606.585 321.111 602.53C317.614 591.141 313.838 579.801 312.709 567.874C312.172 562.19 311.946 556.46 311.689 550.758C311.464 545.756 312.588 543.574 317.103 541.098C326.918 535.714 337.092 531.231 346.806 525.592C345.813 532.283 345.219 539.026 344.842 545.778ZM763.837 146.06C761.447 145.621 759.035 145.347 756.624 145.059C755.365 144.909 751.445 145.118 750.503 144.298C749.382 143.322 751.323 135.942 751.422 134.358C752.029 124.835 751.324 115.017 750.45 105.53C748.87 88.3545 743.468 72.4429 731.006 60.0756C724.803 53.9194 717.829 49.0352 709.358 46.6782C704.422 45.3048 699.336 44.5725 694.39 43.2409C690.4 42.1653 686.676 40.9342 682.531 40.508C674.264 39.6576 666.706 36.5339 658.639 34.7268C652.703 33.3971 643.156 30.2437 639.308 36.9461C636.279 33.3934 633.232 30.7257 629.411 28.0756C625.752 25.5372 625.154 23.0016 620.672 25.9327C611.966 31.6283 603.812 38.5763 595.68 45.0563C588.085 51.1083 580.736 57.446 572.776 63.0113C564.658 68.6883 566.197 78.3218 570.015 86.3083C577.198 101.341 588.276 114.192 597.974 127.077C604.048 135.149 610.142 143.232 616.192 151.32C621.976 159.05 626.979 167.997 633.737 174.942C637.998 179.32 643.085 173.595 646.93 170.95C651.703 167.664 656.393 164.256 661.172 160.98C671.123 154.156 681.772 147.764 692.278 141.824C693.042 143.99 693.806 146.156 694.57 148.323C692.263 148.496 689.146 147.98 687.972 150.461C686.294 154.004 690.41 154.469 691.132 156.501C691.776 158.315 689.133 163.107 688.352 164.742C686.594 168.426 684.139 171.602 681.434 174.634C670.735 186.635 657.195 195.219 643.458 203.401C628.757 212.155 613.001 217.5 596.907 223.141C588.723 226.009 580.229 227.342 571.784 229.178C563.646 230.948 555.516 233.273 547.201 233.941C530.188 235.306 512.135 236.329 495.329 232.66C493.489 232.259 491.542 231.389 489.67 231.224C488.17 231.091 487.059 231.72 485.642 231.801C482.601 231.975 480.858 229.255 478.442 231.782C477.233 233.046 477.212 235.168 475.527 232.809C473.384 229.808 478.862 229.228 480.891 228.373C487.726 225.494 493.22 219.699 497.562 213.84C501.902 207.986 502.526 201.734 499.883 194.88C497.242 188.029 491.235 183.385 486.725 177.821C484.543 175.127 482.536 172.277 480.14 169.762C478.862 168.419 476.801 167.133 476.721 165.778C476.628 164.203 477.571 163.421 477.007 161.507C476.861 161.009 476.235 160.726 476.102 160.179C475.892 159.307 476.218 158.559 476.108 157.709C475.855 155.761 475.091 154.537 474.009 152.941C473.335 151.943 472.35 149.946 471.423 149.199C469.798 147.889 467.582 148.423 465.93 147.095C463.316 144.995 462.397 140.57 460.084 138.02C456.828 134.432 456.134 138.057 452.685 136.914C449.736 135.935 449.77 131.497 447.387 129.996C444.03 127.882 441.203 131.772 438.222 132.638C434.3 133.778 435.807 129.353 432.311 128.95C429.154 128.586 424.782 134.989 423.208 137.263C421.604 135.394 419.85 132.209 416.964 133.35C413.934 134.548 413.396 140.124 411.182 142.113C410.41 142.805 410.573 143.315 409.624 143.634C408.398 144.044 406.765 142.265 405.18 142.807C401.983 143.902 402.373 148.168 402.366 150.932C398.594 150.381 395.963 150.1 394.701 154.165C393.465 158.144 392.996 156.388 389.019 157.681C385.59 158.794 385.111 162.05 384.545 165.234C384.195 167.214 384.519 168.023 385.051 169.828C385.723 172.102 385.723 172.074 384.628 174.244C382.719 178.032 382.605 182.204 382.3 186.372C381.976 190.819 381.198 194.868 382.461 199.212C383.243 201.9 383.303 205.558 385.936 207.063C386.98 207.66 388.754 207.333 389.642 207.925C391.339 209.055 390.823 210.774 391.952 212.424C392.799 213.659 394.164 213.778 395.113 214.779C396.144 215.869 396.205 217.196 396.793 218.526C398.531 222.464 400.166 224.369 394.5 224.594C391.004 224.733 387.275 225.781 383.793 225.459C379.684 225.081 378.663 222.784 377.355 219.287C370.764 201.665 367.222 182.565 358.542 165.808C356.636 162.128 348.813 147.097 345.506 158.049C342.718 167.286 346.376 178.559 347.779 187.753C343.378 183.787 341.75 176.642 338.408 171.799C335.94 168.221 328.211 159.435 323.68 164.47C320.109 168.438 321.002 176.853 321.661 181.597C322.702 189.103 325.1 196.336 326.814 203.698C324.657 200.876 323.593 197.431 322.096 194.254C320.219 190.27 317.877 186.49 315.208 182.989C312.875 179.93 310.268 177.086 307.44 174.478C305.279 172.483 301.409 168.117 298.339 167.881C290.441 167.275 292.925 181.764 294.128 185.906C296.621 194.492 299.325 202.841 301.261 211.599C305.045 228.711 309.628 245.428 312.416 262.758C313.033 266.6 313.776 269.667 312.256 273.361C310.917 276.615 309.528 280.506 307.057 283.008C301.464 288.674 296.82 294.724 292.639 301.551C288.161 308.863 283.551 316.259 279.896 324.022C278.215 327.593 276.84 331.456 274.908 334.891C273.164 337.991 271.067 340.441 269.828 343.874C263.904 360.276 259.518 376.391 257.51 393.759C255.861 408.018 257.397 426.985 274.613 430.322C282.522 431.855 289.623 428.348 296.754 425.453C304.131 422.46 309.464 417.593 315.481 412.421C322.957 405.995 330.719 399.966 338.274 393.647C345.833 387.324 352.814 380.312 360.332 373.922C367.758 367.608 374.476 360.903 380.897 353.572C387.267 346.299 392.442 338.242 398.609 330.867C398.586 340.415 397.169 349.876 396.771 359.411C396.407 368.153 396.399 376.886 396.752 385.624C397.104 394.357 394.797 402.669 394.779 411.383C394.759 419.883 394.422 428.334 394.236 436.825C394.152 440.634 393.406 444.907 394.829 448.582C395.892 451.326 399.232 452.183 402.082 452.923C406.485 454.066 419.735 451.865 421.702 456.57C422.776 459.137 421.694 463.811 421.778 466.648C421.918 471.323 422.089 475.997 422.249 480.671C422.415 485.498 422.576 490.326 422.751 495.152C422.908 499.405 423.735 504.143 423.222 508.353C422.784 511.962 420.68 511.49 417.345 511.675C412.312 511.953 407.277 512.177 402.242 512.396C394.855 512.72 387.146 512.572 380.065 513.444C377.091 513.81 373.841 513.654 370.704 514.251C366.769 514.999 363.135 515.189 359.144 515.387C355.927 515.546 351.791 515.312 349.263 517.691C348.386 518.516 348.19 519.5 347.568 520.418C346.404 522.139 347.052 521.686 345.141 522.073C337.679 523.585 330.592 525.29 323.295 527.833C319.642 529.106 316.253 530.816 312.583 532.013C309.367 533.063 307.009 534.355 305.42 537.512C302.579 543.151 303.299 551.309 303.505 557.386C303.828 566.867 305.934 575.893 308.206 585.062C310.569 594.601 312.422 604.395 317.019 613.159C318.529 616.038 320.16 619.712 323.245 621.213C327.228 623.15 333.354 621.976 337.701 621.983C340.618 621.988 348.433 622.99 350.613 620.544C352.725 618.175 350.6 611.494 350.303 608.554C349.258 598.252 347.377 587.854 347.402 577.482C349.781 580.998 353.908 587.068 358.037 581.681C359.054 580.355 358.657 579.739 360.462 578.97C361.46 578.545 363.564 578.284 364.652 578.358C366.13 578.457 366.678 579.052 368.036 578.761C369.239 578.503 370.591 577.426 371.97 577.099C389.064 573.036 406.058 568.657 423.225 565.038C427.764 564.08 427.119 567.565 427.419 571.489C427.75 575.829 427.118 580.212 427.72 584.504C428.244 588.238 428.652 591.877 427.914 595.633C427.044 600.064 427.604 603.76 428.47 608.148C431.81 625.067 431.213 643.417 431.966 660.613C432.358 669.569 431.516 678.713 432.359 687.621C432.677 690.986 434.555 692.845 435.316 695.905C436.19 699.42 433.807 703.895 433.082 707.299C431.625 714.133 429.066 723.914 433.747 729.86C436.275 733.072 439.589 733.538 443.331 734.623C447.809 735.923 452.224 737.438 456.723 738.669C473.163 743.169 490.929 744.049 507.778 746.529C511.904 747.136 515.731 747.079 519.883 746.792C522.443 746.614 528.747 747.456 530.875 745.924C532.015 745.105 531.437 744.078 532.017 743.076C532.84 741.652 533.837 741.074 535.239 740.188C537.56 738.721 540.244 737.864 540.636 734.836C541.594 727.419 532.325 723.49 527.369 720.283C521.036 716.184 513.386 714.601 506.665 711.255C502.956 709.409 499.379 707.317 495.806 705.222C494.257 704.314 491.116 703.286 490.036 701.856C488.934 700.397 490.013 698.314 490.469 696.229C492.353 687.614 491.716 678.804 492.69 670.097C493.665 661.376 493.4 652.602 493.721 643.836C494.052 634.809 494.797 625.805 495.37 616.791C495.896 608.466 496.428 600.007 496.516 591.673C496.599 583.945 497.653 576.364 497.902 568.586C497.987 565.946 497.513 561.157 499.265 558.921C500.803 556.96 505.893 557.206 508.267 556.862C514.666 555.934 520.756 555.119 527.083 554.559C542.137 553.227 558.89 552.246 573.125 546.999C578.996 544.835 586.808 541.879 588.756 535.138C590.996 527.389 588.072 517.864 587.975 509.941C587.871 501.481 585.419 493.228 583.58 485.031C581.6 476.207 580.353 467.232 578.213 458.441C576.249 450.375 573.065 443.231 570.054 435.573C568.832 432.467 561.875 421.764 564.034 419.125C565.196 417.703 569.383 417.343 571.081 416.692C574.743 415.292 578.41 413.699 581.787 411.704C586.294 409.04 596.164 404.633 596.619 398.714C597.051 393.057 591.493 387.34 588.667 382.897C584.114 375.738 578.372 369.48 574.036 362.179C565.273 347.425 558.304 331.265 551.915 315.365C548.574 307.047 547.482 299.214 546.932 290.335C556.637 290.358 566.515 291.552 576.158 290.195C586.653 288.718 597.162 286.23 607.565 284.18C626.51 280.446 644.699 276.23 662.249 267.822C678.683 259.949 695.359 251.332 708.966 238.834C716.001 232.372 723.179 225.786 729.254 218.396C735.496 210.805 740.191 202.18 745.006 193.658C750.321 184.251 754.552 174.365 757.897 164.076C758.57 162.007 758.573 159.373 759.434 157.419C760.406 155.213 762.173 155.155 764.019 153.993C766.614 152.358 768.343 146.887 763.837 146.06Z" fill="black"/>
<path fill-rule="evenodd" clip-rule="evenodd" d="M537.89 40.7595C540.109 42.6654 549.671 49.3789 552.759 47.7465C556.57 45.7313 550.537 39.6609 548.913 38.1643C546.845 36.2603 539.459 30.5002 536.631 31.0349C530.978 32.1043 535.894 39.0441 537.89 40.7595Z" fill="black"/>
<path fill-rule="evenodd" clip-rule="evenodd" d="M542.613 109.662C543.867 107.195 547.201 106.288 548.742 103.901C550.597 101.031 551.449 98.5194 550.765 95C546.018 96.598 540.617 101.435 537.441 105.217C534.786 108.378 531.015 114.983 537.943 115C537.883 114.06 537.822 113.118 537.761 112.179C539.839 112.481 541.67 111.521 542.613 109.662Z" fill="black"/>
<path fill-rule="evenodd" clip-rule="evenodd" d="M519.998 68.6177C523.058 69.4974 525.584 69.3728 528.711 69.4416C530.98 69.4922 534.081 70.7394 535.92 69.3336C534.288 68.3886 536.35 68.3364 535.946 67.4149C535.607 66.6467 534.963 66.8984 534.439 66.2765C532.571 64.0608 530.947 64.0878 527.985 63.627C525.689 63.2682 522.314 62.4408 520.109 63.5817C517.788 64.7828 516.89 67.7241 519.998 68.6177Z" fill="black"/>
<path fill-rule="evenodd" clip-rule="evenodd" d="M563.563 136.579C565.542 134.919 567.7 130.113 568.1 127.633C568.257 126.661 567.557 125.917 567.64 125.202C567.8 123.839 570.601 121.205 567.667 120.087C565.101 119.108 562.689 126.712 562.037 128.371C561.368 130.068 559.546 133.374 560.105 135.015C560.569 136.377 562.226 137.699 563.563 136.579Z" fill="black"/>
<path fill-rule="evenodd" clip-rule="evenodd" d="M587.241 33.6624C589.032 32.0003 590.166 30.1152 589.98 27.8295C589.833 26.029 588.485 19.8214 586.967 20.0039C581.928 20.6121 584.194 36.4929 587.241 33.6624Z" fill="black"/>
<path fill-rule="evenodd" clip-rule="evenodd" d="M480.865 311.197C480.45 309.679 478.943 300.399 476.336 301.031C474.356 301.511 476.413 309.678 476.505 310.753C476.698 313.001 472.377 312.927 470.369 312.623C467.184 312.142 467.44 310.276 466.963 307.381C466.784 306.287 466.095 301.342 463.812 303.153C462.271 304.377 463.373 310.474 463.501 311.865C463.946 316.684 464.469 324.912 467.334 329.287C468.475 331.032 469.503 331.894 470.703 329.656C471.917 327.391 469.169 320.488 468.688 318.172C470.955 318.393 477.481 317.658 478.847 320.013C480.094 322.162 478.099 328.303 482.1 328.801C484.473 329.097 484.043 326.348 483.815 324.234C483.336 319.798 482.034 315.481 480.865 311.197Z" fill="black"/>
<path fill-rule="evenodd" clip-rule="evenodd" d="M486.944 309.05C484.316 310.237 487.615 327.545 491.46 326.987C495.947 326.334 489.448 307.919 486.944 309.05Z" fill="black"/>
<path fill-rule="evenodd" clip-rule="evenodd" d="M484.015 303.319C483.691 307.216 488.755 308.668 488.995 304.433C489.179 301.166 484.356 299.222 484.015 303.319Z" fill="black"/>
<path fill-rule="evenodd" clip-rule="evenodd" d="M456.217 199.996C458.529 208.612 479.573 212.277 476.738 200.657C475.318 194.839 469.388 200.008 465.248 199.331C462.569 198.893 454.589 193.92 456.217 199.996Z" fill="black"/>
<path fill-rule="evenodd" clip-rule="evenodd" d="M450.932 184.627C451.922 180.017 441.837 174.928 438.177 176.197C432.824 178.055 432.847 189.93 436.931 193.087C437.468 193.502 439.115 194.493 439.922 193.703C441.195 192.454 439.804 192.795 439.507 191.548C439.035 189.565 437.493 187.019 439.029 184.762C441.933 180.5 449.515 191.233 450.932 184.627Z" fill="black"/>
<path fill-rule="evenodd" clip-rule="evenodd" d="M420.181 207.005C416.545 206.801 413.563 212.445 418.913 211.972C419.938 211.881 422.139 211.623 422.733 210.547C423.717 208.764 421.78 207.095 420.181 207.005Z" fill="black"/>
<path fill-rule="evenodd" clip-rule="evenodd" d="M596.581 72.4624C595.336 70.6622 592.727 67.765 590.482 69.5707C588.492 71.172 588.839 75.1242 589.603 77.0881C591.657 82.3753 596.509 87.0854 602 84.0392C600.092 80.2179 599.018 75.9866 596.581 72.4624Z" fill="black"/>
</g>
<defs>
<filter id="filter0_d_15_302" x="-4" y="0" width="1032" height="776" filterUnits="userSpaceOnUse" color-interpolation-filters="sRGB">
<feFlood flood-opacity="0" result="BackgroundImageFix"/>
<feColorMatrix in="SourceAlpha" type="matrix" values="0 0 0 0 0 0 0 0 0 0 0 0 0 0 0 0 0 0 127 0" result="hardAlpha"/>
<feOffset dy="4"/>
<feGaussianBlur stdDeviation="2"/>
<feComposite in2="hardAlpha" operator="out"/>
<feColorMatrix type="matrix" values="0 0 0 0 0 0 0 0 0 0 0 0 0 0 0 0 0 0 0.25 0"/>
<feBlend mode="normal" in2="BackgroundImageFix" result="effect1_dropShadow_15_302"/>
<feBlend mode="normal" in="SourceGraphic" in2="effect1_dropShadow_15_302" result="shape"/>
</filter>
</defs>
</svg>
